# xmcd
#
# Track frame offsets:
#	150
#	12545
#	24392
#	40720
#	55612
#	70617
#	83312
#	95087
#	107132
#	123110
#	138250
#	155315
#	167750
#	182065
#	199220
#	210347
#	228837
#	242687
#	256612
#	270315
#
# Disc length: 3775 seconds
#
# Revision: 3
# Processed by: cddbd v1.5.2PL0 Copyright (c) Steve Scherf et al.
# Submitted via: audiograbber 1.83.01
#
DISCID=f00ebd14
DTITLE=Various Artist - SOUND FACTORY - COUNTRY 2
DYEAR=1900
DGENRE=COUNTRY
TTITLE0=JOHNNY CASH - FOLSOM PRISON BLUES
TTITLE1=JOHNNY CASH - I WALK THE LINE
TTITLE2=JOHN DENVER - SUNSHINE ON MY SHOULDER
TTITLE3=JOHN DENVER - TAKE ME HOME COUNTRY ROADS
TTITLE4=JOHN DENVER - THANK GOD I'M A COUNTRY BOY
TTITLE5=MERLE HAGGARD - OKIE FROM MUSKOGEE
TTITLE6=MERLE HAGGARD - TODAY I STARTED LOVING YOU AGAIN
TTITLE7=CCR - COTTON FEILDS
TTITLE8=NELSON and IGLESIUS - TO ALL THE GIRLS I'VE LOVED BEFORE
TTITLE9=WAYLON and WILLIE - A GOOD HEARTED WOMAN
TTITLE10=WAYLON and WILLIE - LUCHENBACH TEXAS
TTITLE11=WAYLON and WILLIE - MAMA DON'T LET YOU BABIES GROW UP TO BE COWBOYS
TTITLE12=GEORGE JONES - HE STOPPED LOVING HER TODAY
TTITLE13=WILLIE NELSON - ALWAYS ON MY MIND
TTITLE14=WILLIE NELSON - ON THE ROAD AGAIN
TTITLE15=RAY PRICE - FOR THE GOOD TIMES
TTITLE16=CHARLIE RICH - BEHIND CLOSED DOORS
TTITLE17=CHARLIE RICH - THE MOST BEAUTIFUL GIRL
TTITLE18=HANK WILLIAMS - HEY GOOD LOOKING
TTITLE19=HANK WILLIAMS - YOUR CHEATING HEART
EXTD=
EXTT0=
EXTT1=
EXTT2=
EXTT3=
EXTT4=
EXTT5=
EXTT6=
EXTT7=
EXTT8=
EXTT9=
EXTT10=
EXTT11=
EXTT12=
EXTT13=
EXTT14=
EXTT15=
EXTT16=
EXTT17=
EXTT18=
EXTT19=
PLAYORDER=
